<svg xmlns="http://www.w3.org/2000/svg" viewBox="0 0 352.7 69"><g fill="#689996"><g fill-rule="evenodd" clip-rule="evenodd"><path d="M142 53.9c-13.3 9.8-32.6 15-49.2 15-23.3.1-44.2-8.5-60.1-22.9-1.2-1.1-.1-2.7 1.4-1.8 17.1 10 38.2 15.9 60.1 15.9 14.7 0 30.9-3.1 45.8-9.4 2.3-.8 4.1 1.6 2 3.2z"/><path d="M147.5 47.6c-1.7-2.2-11.2-1-15.5-.5-1.3.2-1.5-1-.3-1.8 7.6-5.3 20.1-3.8 21.5-2 1.5 1.8-.4 14.3-7.5 20.3-1.1.9-2.1.4-1.7-.8 1.6-4 5.2-13 3.5-15.2z"/></g><path fill-rule="evenodd" clip-rule="evenodd" d="M132.3 7.5V2.3c0-.8.6-1.3 1.3-1.3h23.3c.7 0 1.3.5 1.3 1.3v4.5c0 .7-.6 1.7-1.8 3.3l-12.1 17.2c4.5-.1 9.2.6 13.3 2.9.9.5 1.2 1.3 1.2 2v5.5c0 .8-.8 1.6-1.7 1.2-7.2-3.8-16.7-4.2-24.6 0-.8.4-1.7-.4-1.7-1.2v-5.3c0-.8 0-2.3.9-3.6l14-20h-12.2c-.6 0-1.2-.5-1.2-1.3zM47.3 40h-7.1c-.7 0-1.2-.6-1.3-1.2V2.5c0-.7.6-1.3 1.4-1.3h6.6c.7 0 1.2.6 1.3 1.2v4.7h.1C50 2.5 53.3.4 57.6.4c4.4 0 7.2 2.1 9.2 6.7C68.5 2.5 72.4.4 76.6.4c3 0 6.2 1.2 8.2 4 2.2 3.1 1.8 7.5 1.8 11.4v22.9c0 .7-.6 1.3-1.4 1.3h-7.1c-.7 0-1.3-.6-1.3-1.3V19.4c0-1.5.1-5.4-.2-6.8-.5-2.4-2.1-3.1-4.2-3.1-1.7 0-3.5 1.1-4.2 3-.7 1.8-.7 4.9-.7 7v19.3c0 .7-.6 1.3-1.4 1.3H59c-.7 0-1.3-.6-1.3-1.3V19.5c0-4.1.7-10-4.4-10-5.1 0-4.9 5.8-4.9 10v19.3c.3.6-.3 1.2-1.1 1.2zM178.2.4c10.5 0 16.2 9 16.2 20.5 0 11.1-6.3 19.9-16.2 19.9-10.3 0-15.9-9-15.9-20.3C162.3 9.1 168 .4 178.2.4zm.1 7.4c-5.2 0-5.6 7.1-5.6 11.5s-.1 13.9 5.5 13.9c5.5 0 5.8-7.6 5.8-12.3 0-3.1-.1-6.7-1.1-9.6-.8-2.5-2.4-3.5-4.6-3.5zM208.1 40H201c-.7 0-1.3-.6-1.3-1.3V2.3c.1-.7.6-1.2 1.4-1.2h6.6c.6 0 1.1.5 1.3 1v5.6h.1c2-5 4.8-7.3 9.6-7.3 3.2 0 6.3 1.1 8.3 4.3 1.9 2.9 1.9 7.8 1.9 11.3v22.9c-.1.6-.7 1.1-1.4 1.1h-7.1c-.7 0-1.2-.5-1.3-1.1V19.1c0-4 .5-9.8-4.4-9.8-1.7 0-3.3 1.1-4.1 2.9-1 2.2-1.1 4.4-1.1 6.9v19.6c-.1.7-.7 1.3-1.4 1.3z"/><ellipse fill-rule="evenodd" clip-rule="evenodd" cx="236.7" cy="37.1" rx="3.5" ry="3.3"/><path d="M308.3 40c-.7 0-1.3-.6-1.3-1.3V2.3c0-.6.6-1.2 1.3-1.2h2.6c.7 0 1.3.5 1.4 1.2v5.3c1.8-4.2 5.3-7.5 9.6-7.5h.6c4.6 0 8 3.4 9.3 8.4 2-4.9 5.6-8.4 10.5-8.4h.6c3.4 0 6.7 2.2 8.5 5.6 1.7 3.2 1.6 7.5 1.6 11.1v21.9c0 .7-.6 1.3-1.3 1.3h-3.1c-.7 0-1.2-.5-1.3-1.1v-22c0-2.6.1-5.4-.9-7.7-1.1-2.4-3.1-3.9-5.4-4-2.5.1-4.7 1.9-6.2 4.4-1.9 3.1-1.9 6-1.9 9.6V39c-.1.6-.6 1.1-1.3 1.1h-3.1c-.7 0-1.3-.6-1.3-1.3V15.5c0-2.1-.1-4.7-1.1-6.6-1.1-2.2-3.2-3.6-5.3-3.7-2.2.1-4.5 1.8-5.8 3.8-1.7 2.5-2 5.7-2 8.9v20.9c0 .7-.6 1.3-1.3 1.3h-3.4zm-21.4.7c-10 0-14.5-10.2-14.5-20.5 0-10.8 5.3-20.1 15.4-20.1h.6c9.9 0 14.7 9.9 14.7 20.2 0 10.9-5.4 20.4-15.6 20.4h-.6zm.8-4.9c3.3-.1 5.9-2.2 7.5-5.6 1.4-3.1 1.7-6.6 1.7-9.9 0-3.7-.4-7.5-2.1-10.6-1.5-2.7-4.2-4.5-7-4.6-3.1.1-5.9 2.2-7.3 5.5-1.3 2.8-1.7 6.6-1.7 9.7 0 3.5.5 7.6 1.9 10.6 1.3 2.9 4 4.8 7 4.9zm-32.2-.2c4.5-.1 6.9-3.8 7.9-8.4.2-.6.6-1 1.3-1h3c.7 0 1.4.6 1.3 1.2-1.4 8-6.2 13.4-13 13.4h-.6c-10 0-14.3-10-14.3-20.2 0-10.1 4.4-20.4 14.3-20.4h.6c6.9 0 11.9 5.3 12.9 13.3 0 .6-.6 1.1-1.2 1.2h-3.1c-.7-.1-1.1-.7-1.2-1.3-.8-4.5-3.3-8-7.6-8.1-6.8.2-8.7 8.6-8.7 15 0 6.1 1.6 15.1 8.4 15.3z"/><path fill-rule="evenodd" clip-rule="evenodd" d="M113.7 22.6c0 2.8.1 5.1-1.3 7.5-1.1 2-2.9 3.2-4.9 3.2-2.7 0-4.3-2.1-4.3-5.1 0-6 5.4-7.1 10.5-7.1v1.5zm7.1 17.3c-.5.4-1.1.4-1.7.2-2.4-2-2.8-2.9-4.1-4.7-3.9 4-6.6 5.1-11.7 5.1-6 0-10.6-3.7-10.6-11 0-5.8 3.1-9.7 7.6-11.6 3.8-1.7 9.2-2 13.3-2.5v-.9c0-1.7.1-3.7-.9-5.1-.9-1.3-2.5-1.8-4-1.8-2.7 0-5.1 1.4-5.7 4.3-.1.6-.6 1.3-1.2 1.3l-6.9-.7c-.6-.1-1.2-.6-1.1-1.5 1.8-8.5 9.3-11 16.1-11 3.4 0 8 .9 10.7 3.5 3.4 3.2 3.1 7.5 3.1 12.2v11c0 3.3 1.4 4.8 2.7 6.6.5.6.6 1.4 0 1.9-1.6 1.2-4.1 3.4-5.6 4.7zM20.9 22.6c0 2.8.1 5.1-1.3 7.5-1.1 2-2.9 3.2-4.9 3.2-2.7 0-4.3-2.1-4.3-5.1 0-6 5.4-7.1 10.5-7.1v1.5zM28 39.9c-.5.4-1.1.4-1.7.2-2.4-2-2.8-2.9-4.1-4.7-3.9 4-6.6 5.1-11.7 5.1-6 0-10.6-3.7-10.6-11 0-5.8 3.1-9.7 7.6-11.6 3.8-1.7 9.2-2 13.3-2.5v-.9c0-1.7.1-3.7-.9-5.1-.9-1.3-2.5-1.8-4-1.8-2.7 0-5.1 1.4-5.7 4.3-.1.6-.6 1.3-1.2 1.3l-6.9-.7C1.5 12.4.9 11.9 1 11 2.8 2.5 10.3 0 17 0c3.4 0 7.9.9 10.7 3.5 3.4 3.2 3.1 7.5 3.1 12.2v11c0 3.3 1.4 4.8 2.7 6.6.5.6.6 1.4 0 1.9-1.5 1.2-4.1 3.4-5.5 4.7z"/></g></svg>