<svg id="Layer_1" xmlns="http://www.w3.org/2000/svg" viewBox="-219 272 352.7 69"><style>.st0{fill:#041b41}</style><path class="st0" d="M-77 325.9c-13.3 9.8-32.6 15-49.2 15-23.3.1-44.2-8.5-60.1-22.9-1.2-1.1-.1-2.7 1.4-1.8 17.1 10 38.2 15.9 60.1 15.9 14.7 0 30.9-3.1 45.8-9.4 2.3-.8 4.1 1.6 2 3.2z"/><path class="st0" d="M-71.5 319.6c-1.7-2.2-11.2-1-15.5-.5-1.3.2-1.5-1-.3-1.8 7.6-5.3 20.1-3.8 21.5-2 1.5 1.8-.4 14.3-7.5 20.3-1.1.9-2.1.4-1.7-.8 1.6-4 5.2-13 3.5-15.2zm-15.2-40.1v-5.2c0-.8.6-1.3 1.3-1.3h23.3c.7 0 1.3.5 1.3 1.3v4.5c0 .7-.6 1.7-1.8 3.3l-12.1 17.2c4.5-.1 9.2.6 13.3 2.9.9.5 1.2 1.3 1.2 2v5.5c0 .8-.8 1.6-1.7 1.2-7.2-3.8-16.7-4.2-24.6 0-.8.4-1.7-.4-1.7-1.2v-5.3c0-.8 0-2.3.9-3.6l14-20h-12.2c-.6 0-1.2-.5-1.2-1.3zm-85 32.5h-7.1c-.7 0-1.2-.6-1.3-1.2v-36.3c0-.7.6-1.3 1.4-1.3h6.6c.7 0 1.2.6 1.3 1.2v4.7h.1c1.7-4.6 5-6.7 9.3-6.7 4.4 0 7.2 2.1 9.2 6.7 1.7-4.6 5.6-6.7 9.8-6.7 3 0 6.2 1.2 8.2 4 2.2 3.1 1.8 7.5 1.8 11.4v22.9c0 .7-.6 1.3-1.4 1.3h-7.1c-.7 0-1.3-.6-1.3-1.3v-19.3c0-1.5.1-5.4-.2-6.8-.5-2.4-2.1-3.1-4.2-3.1-1.7 0-3.5 1.1-4.2 3-.7 1.8-.7 4.9-.7 7v19.3c0 .7-.6 1.3-1.4 1.3h-7.1c-.7 0-1.3-.6-1.3-1.3v-19.3c0-4.1.7-10-4.4-10-5.1 0-4.9 5.8-4.9 10v19.3c.3.6-.3 1.2-1.1 1.2zm130.9-39.6c10.5 0 16.2 9 16.2 20.5 0 11.1-6.3 19.9-16.2 19.9-10.3 0-15.9-9-15.9-20.3 0-11.4 5.7-20.1 15.9-20.1zm.1 7.4c-5.2 0-5.6 7.1-5.6 11.5s-.1 13.9 5.5 13.9c5.5 0 5.8-7.6 5.8-12.3 0-3.1-.1-6.7-1.1-9.6-.8-2.5-2.4-3.5-4.6-3.5zm29.8 32.2H-18c-.7 0-1.3-.6-1.3-1.3v-36.4c.1-.7.6-1.2 1.4-1.2h6.6c.6 0 1.1.5 1.3 1v5.6h.1c2-5 4.8-7.3 9.6-7.3 3.2 0 6.3 1.1 8.3 4.3 1.9 2.9 1.9 7.8 1.9 11.3v22.9c-.1.6-.7 1.1-1.4 1.1H1.4c-.7 0-1.2-.5-1.3-1.1v-19.8c0-4 .5-9.8-4.4-9.8-1.7 0-3.3 1.1-4.1 2.9-1 2.2-1.1 4.4-1.1 6.9v19.6c-.1.7-.7 1.3-1.4 1.3z"/><ellipse class="st0" cx="17.7" cy="309.1" rx="3.5" ry="3.3"/><path class="st0" d="M89.3 312c-.7 0-1.3-.6-1.3-1.3v-36.4c0-.6.6-1.2 1.3-1.2h2.6c.7 0 1.3.5 1.4 1.2v5.3c1.8-4.2 5.3-7.5 9.6-7.5h.6c4.6 0 8 3.4 9.3 8.4 2-4.9 5.6-8.4 10.5-8.4h.6c3.4 0 6.7 2.2 8.5 5.6 1.7 3.2 1.6 7.5 1.6 11.1v21.9c0 .7-.6 1.3-1.3 1.3h-3.1c-.7 0-1.2-.5-1.3-1.1v-22c0-2.6.1-5.4-.9-7.7-1.1-2.4-3.1-3.9-5.4-4-2.5.1-4.7 1.9-6.2 4.4-1.9 3.1-1.9 6-1.9 9.6V311c-.1.6-.6 1.1-1.3 1.1h-3.1c-.7 0-1.3-.6-1.3-1.3v-23.3c0-2.1-.1-4.7-1.1-6.6-1.1-2.2-3.2-3.6-5.3-3.7-2.2.1-4.5 1.8-5.8 3.8-1.7 2.5-2 5.7-2 8.9v20.9c0 .7-.6 1.3-1.3 1.3h-3.4v-.1zm-21.4.7c-10 0-14.5-10.2-14.5-20.5 0-10.8 5.3-20.1 15.4-20.1h.6c9.9 0 14.7 9.9 14.7 20.2 0 10.9-5.4 20.4-15.6 20.4h-.6zm.8-4.9c3.3-.1 5.9-2.2 7.5-5.6 1.4-3.1 1.7-6.6 1.7-9.9 0-3.7-.4-7.5-2.1-10.6-1.5-2.7-4.2-4.5-7-4.6-3.1.1-5.9 2.2-7.3 5.5-1.3 2.8-1.7 6.6-1.7 9.7 0 3.5.5 7.6 1.9 10.6 1.3 2.9 4 4.8 7 4.9zm-32.2-.2c4.5-.1 6.9-3.8 7.9-8.4.2-.6.6-1 1.3-1h3c.7 0 1.4.6 1.3 1.2-1.4 8-6.2 13.4-13 13.4h-.6c-10 0-14.3-10-14.3-20.2 0-10.1 4.4-20.4 14.3-20.4h.6c6.9 0 11.9 5.3 12.9 13.3 0 .6-.6 1.1-1.2 1.2h-3.1c-.7-.1-1.1-.7-1.2-1.3-.8-4.5-3.3-8-7.6-8.1-6.8.2-8.7 8.6-8.7 15 0 6.1 1.6 15.1 8.4 15.3zm-129.1-2.3c-1.3-1.8-2.7-3.3-2.7-6.6v-11c0-4.7.3-9-3.1-12.2-2.7-2.6-7.3-3.5-10.7-3.5-6.8 0-14.3 2.5-16.1 11-.1.9.5 1.4 1.1 1.5l6.9.7c.6 0 1.1-.7 1.2-1.3.6-2.9 3-4.3 5.7-4.3 1.5 0 3.1.5 4 1.8 1 1.4.9 3.4.9 5.1v.9c-4.1.5-9.5.8-13.3 2.5-4.5 1.9-7.6 5.8-7.6 11.6 0 7.3 4.6 11 10.6 11 5.1 0 7.8-1.1 11.7-5.1 1.3 1.8 1.7 2.7 4.1 4.7.6.2 1.2.2 1.7-.2 1.5-1.3 4-3.5 5.6-4.7.6-.5.5-1.3 0-1.9zm-14-3.2c-1.1 2-2.9 3.2-4.9 3.2-2.7 0-4.3-2.1-4.3-5.1 0-6 5.4-7.1 10.5-7.1v1.5c0 2.8.1 5.1-1.3 7.5zm-78.9 3.2c-1.3-1.8-2.7-3.3-2.7-6.6v-11c0-4.7.3-9-3.1-12.2-2.8-2.6-7.3-3.5-10.7-3.5-6.7 0-14.2 2.5-16 11-.1.9.5 1.4 1.1 1.5l6.9.7c.6 0 1.1-.7 1.2-1.3.6-2.9 3-4.3 5.7-4.3 1.5 0 3.1.5 4 1.8 1 1.4.9 3.4.9 5.1v.9c-4.1.5-9.5.8-13.3 2.5-4.5 1.9-7.6 5.8-7.6 11.6 0 7.3 4.6 11 10.6 11 5.1 0 7.8-1.1 11.7-5.1 1.3 1.8 1.7 2.7 4.1 4.7.6.2 1.2.2 1.7-.2 1.4-1.3 4-3.5 5.5-4.7.6-.5.5-1.3 0-1.9zm-13.9-3.2c-1.1 2-2.9 3.2-4.9 3.2-2.7 0-4.3-2.1-4.3-5.1 0-6 5.4-7.1 10.5-7.1v1.5c0 2.8.1 5.1-1.3 7.5z"/></svg>