<svg xmlns="http://www.w3.org/2000/svg" viewBox="0 0 154.9 24.1"><g fill="#689996"><path d="M10.4 17c0 4.6-2.1 6.3-5.5 6.3H0v-22h4.9c3.8 0 4.8 2.3 4.8 6 0 2.7-1 4.2-2.7 4.3 1.9 0 3.4 1.9 3.4 5.4zm-6.6-4.1v7.8h1c1.2 0 1.5-.7 1.5-4 0-2.5-.3-3.7-1.6-3.7h-.9v-.1zm0-9.1v6.4h1c1 0 1.2-1 1.2-2.8 0-2.6-.2-3.5-1.5-3.5h-.7v-.1zM32.1 12c2.5.7 2.7 3.6 2.7 6.3 0 2.1.1 3.9.4 5h-4c-.1-.9-.3-1.3-.3-3.3v-2.7c0-1.8-.6-3-1.9-3.4h-.2v9.5h-4v-22h5.9c2.8 0 4.6 1.6 4.6 5.6 0 3.3-1.4 4.8-3.2 5zm-3.2-8v6.4H30c1 0 1.3-.7 1.3-2.7 0-3.2-.6-3.7-1.8-3.7h-.6zM42 11.3c.2 2.9.2 3.7.2 6.4v5.6h-3.6v-22h3.6s1.7 6.5 2.1 7.9c.4 1.4.7 2.5.9 3.4-.1-2.2-.2-4.8-.2-7V1.3h3.5v22h-3.2s-2-6.8-2.4-8.1c-.3-1.2-.6-2.3-.9-3.9zm13.9 8.6h4.8v3.4H52v-22h8.1v3.3h-4.2v5.9h3.7v3h-3.7zm10.5-1.7c0 2.5.6 2.8 1.5 2.8.7 0 1.2-.4 1.2-2.8 0-2.2-1.5-3.7-3-5.7-1.6-1.8-3.2-4.2-3.2-6.3 0-3.3 1.6-5.2 4.6-5.2 3 0 4.7 1.7 4.7 4.9 0 .7-.2 1.3-.3 1.8h-3.2c0-.4.1-.9.1-1.6 0-2.1-.3-2.8-1.2-2.8-.9 0-1 .9-1 2.5 0 2 1.6 3.5 2.8 5.2 1.9 2.4 3.3 4.2 3.3 6.5 0 3.5-1.5 6.2-4.9 6.2-2.9 0-4.9-1.6-4.9-5.4 0-.9 0-1.7.2-2.4l3.5-.1c-.1.9-.2 1.4-.2 2.4zm33.3-6.9c.2 2.9.2 3.7.2 6.4v5.6h-3.6v-22h3.6s1.7 6.5 2.1 7.9c.4 1.4.7 2.5.8 3.4-.1-2.2-.1-4.8-.1-7V1.3h3.5v22H103s-2-6.8-2.4-8.1c-.4-1.2-.6-2.3-.9-3.9zm19.7 1c0 9.4-1.6 11.4-5.2 11.4-3.3 0-5.1-1.5-5.1-11.4 0-9.6 1.4-11.3 5.1-11.3 3.8 0 5.2 1.7 5.2 11.3zm-4.1 0c0-3.4 0-5.6-.1-7.2-.1-1.6-.4-1.9-1-1.9s-.9.3-1 1.9c-.1 1.6-.1 3.7-.1 7.2 0 4 0 5.6.1 7.1.1 1.7.4 1.9 1 1.9.7 0 .9-.1 1-1.9.1-1.6.1-3.1.1-7.1zm17.4 4.7c0 4.6-2.1 6.3-5.5 6.3h-4.9v-22h4.9c3.8 0 4.8 2.3 4.8 6 0 2.7-1 4.2-2.7 4.3 2 0 3.4 1.9 3.4 5.4zm-6.5-4.1v7.8h1c1.2 0 1.5-.7 1.5-4 0-2.5-.3-3.7-1.6-3.7h-.9v-.1zm0-9.1v6.4h1c1 0 1.2-1 1.2-2.8 0-2.6-.3-3.5-1.5-3.5h-.7v-.1zm13.3 16.1h4.6v3.4h-8.6v-22h4zm10.6 0h4.8v3.4h-8.6v-22h8.1v3.3h-4.3v5.9h3.8v3h-3.8zM11.9 23.3L15 1.2h3.8l3.7 22.1h-4.1l-.4-3.5h-2.5l-.4 3.5h-3.2zm4-6h2s-.3-2.6-.5-4.2c-.1-1-.5-4.2-.6-6.3-.1 2.2-.4 5.3-.5 6.3-.1 1.6-.4 4.2-.4 4.2zm75.7-5.5c-1.6 0-2.7 1-3.3 2.5-.7 1.5-1.5 3.3-2 4.3-1.7-2.9-2.9-5.2-3.7-7.3 1.3-.8 3.5-1.9 4.9-3 1.3-1.2 1.9-2.4 2.2-3.6.3-2.5-1-4.7-4.2-4.7-2.7 0-5.8 2.1-6.4 5.5-.3 1.7.1 3.9.8 5.8-2.4 1.6-4.4 3.3-5 6.1-.7 4.6 2.2 6.7 5.4 6.7 2.2 0 3.8-1 5.2-2.5 1 1.1 2.3 2.5 3.8 2.5 1.3 0 2.7-.8 3.7-2.2l-.5-.7c-1 1-1.7 1.4-2.3 1.4-1.1 0-2.1-1-3-2.4-.1-.3-.2-.5-.3-.7.6-1.2 1-2.5 1.6-3.6 1-2.2 1.6-2.9 2.5-2.9 1.6 0 .3 2.6 2 2.6.8 0 1.2-.6 1.3-1.3.1-.9-.5-2.5-2.7-2.5zm-9.8-6.9c.2-1.6 1.6-3.2 3.6-3.2 1.6 0 2.7 1.2 2.3 3-.1.7-.3 1.4-1 2.3-.8.9-3.3 2.5-4.5 3.1-.6-1.8-.8-3.4-.4-5.2zm-.6 17.7c-3 0-4.1-2.6-3.8-4.5.4-2.5 1.6-3.9 3-5.3 1.1 2.7 2.5 5.3 4.4 8.1-1 1.2-2 1.7-3.6 1.7z"/><path d="M81 4s-2.1 3.2.9 9.6c2.4 5.3 5.2 8.2 5.2 8.2s-2.8-3.9-4.8-8.6C79.9 7.5 81 4 81 4z"/></g></svg>