<svg xmlns="http://www.w3.org/2000/svg" preserveAspectRatio="xMidYMid" width="40" height="40"><circle cx="20" cy="20" r="20" fill="#06827a"/><path d="M29.465 15.695a5.994 5.994 0 0 0-1.632-.247c-.816 0-1.471.162-1.964.485-.493.323-.739.762-.739 1.317 0 .488.136.884.408 1.19.272.306.606.547 1.003.723.396.176.94.371 1.632.586.804.238 1.453.474 1.946.706.493.232.912.569 1.258 1.011.346.442.519 1.026.519 1.751 0 .635-.179 1.196-.536 1.683-.357.488-.858.865-1.504 1.131s-1.389.399-2.227.399a6.23 6.23 0 0 1-2.423-.493 6.502 6.502 0 0 1-2.031-1.309l.544-.969c.532.522 1.15.93 1.853 1.224a5.328 5.328 0 0 0 2.074.442c.906 0 1.626-.184 2.159-.552.532-.368.799-.864.799-1.488 0-.498-.136-.906-.408-1.224a2.712 2.712 0 0 0-1.003-.731c-.397-.17-.952-.368-1.666-.595-.805-.249-1.451-.484-1.938-.705a3.264 3.264 0 0 1-1.241-.986c-.34-.436-.51-1.006-.51-1.709 0-.6.17-1.127.51-1.581.34-.453.816-.801 1.428-1.045.612-.244 1.32-.366 2.125-.366a6.86 6.86 0 0 1 1.946.289 6.8 6.8 0 0 1 1.726.765l-.51 1.003a6.147 6.147 0 0 0-1.598-.705zm-17.791 8.993a4.906 4.906 0 0 0 2.525.671c.657 0 1.297-.127 1.921-.382a5.46 5.46 0 0 0 1.666-1.063l.714.765a6.857 6.857 0 0 1-2.023 1.292 5.98 5.98 0 0 1-2.329.476 6.069 6.069 0 0 1-3.094-.816 6.1 6.1 0 0 1-2.236-2.21 5.864 5.864 0 0 1-.824-3.043 5.73 5.73 0 0 1 .833-3.026 6.121 6.121 0 0 1 2.252-2.184 6.171 6.171 0 0 1 3.103-.808c.804 0 1.581.151 2.329.451.748.3 1.405.717 1.972 1.249l-.697.816a5.243 5.243 0 0 0-1.649-1.088 4.993 4.993 0 0 0-1.938-.391c-.918 0-1.76.221-2.525.663a4.938 4.938 0 0 0-1.819 1.811 4.873 4.873 0 0 0-.671 2.507c0 .907.223 1.74.671 2.499a5.021 5.021 0 0 0 1.819 1.811z" fill="#fff" fill-rule="evenodd"/></svg>