<svg id="Layer_1" xmlns="http://www.w3.org/2000/svg" viewBox="-322 267.1 145.4 78.9"><style>.st0{fill:#041b41}</style><path class="st0" d="M-322 335.1c2.6-1.5 4.9-2.8 7.2-4.1 2-1.2 4-2.3 6-3.5.6-.3 1.1-.5 1.8-.5 12.8 0 25.5 0 38.3.1 5.1.1 10.1.4 14.9 2.3 2.5 1 4.7 2.3 6.6 4.2 1.1 1.2 1.9 2.4 2.4 4 .1.3.2.6.6.7.4 0 .6-.2.7-.5 1.9-5.3 6.1-7.6 11-9.2 2.6-.8 5.2-1.1 7.9-1.3 6.6-.4 13.2-.2 19.8-.3 1 0 1.3.2 1.3 1.3-.1 2-.1 4.1 0 6.1 0 1-.3 1.3-1.3 1.2-7.1-.2-14.2-.2-21.3-.2-2.7 0-5.4.3-8.1 1-4.5 1.3-7.2 4.3-8.5 8.7-.3 1.2-1.1.7-1.8.8-.7.1-1.1-.1-1.3-.8-1.3-5.2-4.8-7.9-9.9-9-4.6-1-9.3-.7-14-.7-9.3.1-18.8.2-28.3.3-4 0-7.9.1-11.9.1-3.6 0-7.1-.2-10.6-.5-.4.1-.8 0-1.5-.2zm87.1-49.5c3.5-4.4 7.8-5.7 12.4-4 3.2 1.2 5 3.8 6 6.9 1.7 5.5 1.9 11.1.4 16.7-1.7 6.8-6.5 10-14.1 9.6-7-.3-11.6-4.8-12.1-11.8-.1-1.2-.1-2.3-.1-3.5v-30.9c-.2-1.3.2-1.5 1.4-1.5 1.6.1 3.3.1 4.9 0 .9 0 1.2.2 1.2 1.2v17.3zm11.4 12c0-1 .1-2.1 0-3.1-.2-2.3-.4-4.6-1.7-6.5-1.1-1.7-2.7-2.4-4.6-2-2.1.4-3 1.9-3.8 3.7-.8 2-1.2 4.1-1.3 6.2-.2 3.5-.2 7 .9 10.3.7 2.1 2.2 3.2 4.5 3.4 2.2.1 3.7-.9 4.7-2.8.4-.8.7-1.7.9-2.6.5-2.3.5-4.4.4-6.6zm-50.9 16.5h-8.7c-.6 0-.7-.4-1-.8l-9.6-13.8c-.3-.5-.7-1-1.1-1.6-.3.5-.2.9-.2 1.3v13.7c0 .9-.2 1.2-1.1 1.1-1.8-.1-3.7 0-5.5 0-.7 0-1-.1-1-.9v-45.2c0-.7.3-.9.9-.9 1.8 0 3.7.1 5.5 0 1 0 1.2.3 1.2 1.2v23.9c0 .5-.1.9.2 1.6 1.6-1.9 3.1-3.6 4.6-5.4 1.7-2 3.4-4 5-6 .4-.5.9-.7 1.5-.7h8c-.2.6-.6 1-.9 1.3-3.4 4-6.7 7.9-10.2 11.8-.6.7-.6 1.1-.1 1.8 4.2 5.9 8.2 11.6 12.5 17.6z"/><path class="st0" d="M-246.6 297.8c-.1 3.4-.4 6.6-1.8 9.6-2.1 4.5-5.7 6.9-10.7 7.4-2 .2-3.9.1-5.8-.3-4.7-1.2-7.8-4.2-9.2-8.7-1.6-5.2-1.6-10.4 0-15.6 1.8-5.5 5.7-8.6 11.4-9.1 2.2-.2 4.3-.1 6.4.5 5.6 1.7 8.2 5.9 9.2 11.3.4 1.6.5 3.3.5 4.9zm-8.1.1v-1.3c-.1-2.3-.2-4.6-1.1-6.8-.9-2.3-2.6-3.5-5.1-3.5-2.4 0-4.2 1.2-5.2 3.6-.3.7-.5 1.4-.6 2.2-.5 2.8-.6 5.7-.4 8.6.1 1.7.3 3.4.9 5.1 1.1 2.8 3.1 4.1 5.9 3.8 2.7-.3 4-2 4.8-4.4.8-2.5.8-4.9.8-7.3zm57.4 16.9c-7.3 0-12.2-4-13.7-11.2-.8-3.8-.8-7.5 0-11.3 1.7-8.5 7.8-12.2 16-11.2 5.9.7 9.6 4.1 11.2 9.7 1.3 4.6 1.3 9.2.1 13.8-1.7 6.7-6.5 10.2-13.6 10.2zm6.3-17c-.1-1.3-.1-2.6-.2-3.8-.1-1.3-.3-2.5-.8-3.7-.7-1.9-1.9-3.4-4.1-3.8-3.3-.6-5.5.8-6.6 4.1-.6 1.8-.7 3.8-.8 5.7-.1 3.2-.1 6.3.9 9.4 1.1 3.3 4.1 4.8 7.2 3.7 2.3-.8 3.2-2.7 3.7-4.8.6-2.4.7-4.5.7-6.8zm1.1 33.6v3.3c0 .6-.1.9-.8.9h-7.1c-.5 0-.8-.2-.8-.8v-7.1c0-.6.2-.8.8-.8h6.9c.7 0 .9.3.8.9.2 1.3.2 2.4.2 3.6zm8.9 4.2h-3.2c-.7 0-1-.1-1-.9v-6.8c0-.6.2-.8.8-.8h7c.5 0 .8.1.8.7v7.1c0 .7-.3.8-.9.8-1.1-.1-2.3-.1-3.5-.1z"/></svg>