<svg xmlns="http://www.w3.org/2000/svg" viewBox="0 0 254.3 74.8"><path d="M103.1 56.6c-5.6 1.4-11.9-2-13.9-7.4-.6-1.7-2.6-2.6-4.3-2-1.2.4-2 1.3-2.6 2l-7.1 8c-.7.8-1.8 1.2-2.8 1.2-1-.1-2-.6-2.6-1.5-1.4-2-1.2-4.8-.9-7.9.1-.6-.3-1.3-.9-1.5-.6-.3-1.3-.1-1.7.4l-7.9 8.7c-4.4 4.9-6.4 3.6-7.1 3.2-.7-.4-1.2-1.1-1.4-2-.6-1.8-.3-3.7.1-5.8v-.2c.1-.4.2-.8.2-1.2.1-.5.1-1.1.2-1.6 0-.3-.1-.6-.2-.9-.2-1.7-.9-3.3-2.4-4.4-1.7-1.4-4.2-1.7-6.6-.9-1.7.6-3.4 1.7-5 3.5-3.2 3.5-5.2 8-5.7 12.7-.2 2.1.5 4.2 1.9 5.5-1.7.5-4.1 1-7.1 1.3-5.1.6-10.2-.5-14.4-3l-.9-.6c-2.7-1.9-4.7-4.5-5.9-7.5l-.1-.3c-.3-.8-.5-1.6-.7-2.4-.2-1-.3-1.5-.3-1.8 0-.2 0-.5-.1-.8-.1-2 0-3.9.5-5.9.6-2.4 1-4.1 1.4-5.1 1.5-3.8 3-6.8 4.8-10.3l.5-1C13.3 20.8 17.3 15 22 9.9c2.9-3.2 5.3-5 8.5-4.4 2.6.5 4.9 2.6 5.9 5.4 1.8 5 .1 10.4-1.4 15.2-.2.8.2 1.6 1 1.9.8.2 1.6-.2 1.9-1 1.6-5 3.5-11.2 1.3-17.2-1.2-4-4.4-6.8-8-7.5-5.4-1-9.2 3.1-11.3 5.4-4.9 5.4-9 11.4-12.3 17.9l-.5 1c-1.8 3.6-3.4 6.7-4.9 10.6-.4 1.1-.9 2.9-1.5 5.5-.5 2.2-.7 4.5-.6 6.8 0 .4.1.7.1 1 .1.5.2 1.2.4 2.1.2.9.5 1.9.8 2.7 0 .1.1.3.1.4 1.3 3.6 3.7 6.7 6.9 8.9.3.2.7.5 1.1.7 3.9 2.3 8.5 3.5 13.2 3.5 1 0 2-.1 3.1-.2 3.6-.4 6.5-1 8.3-1.7.7-.3 1.5-.6 2.4-1 3 0 5.4-2.6 6.6-3.9 1.4-1.1 2.7-2.3 3.8-3.8 0 .1.1.3.1.4.5 1.6 1.4 2.9 2.7 3.7 3.2 2 6.9.7 10.9-3.8l5.1-5.6c.1 1.9.5 3.8 1.6 5.5 1.1 1.6 2.9 2.7 4.8 2.8 2 .1 4-.7 5.3-2.2l7.1-8c.4-.5.9-1 1.4-1.2.1 0 .4.1.4.2 2.3 6.2 9.3 10.3 15.8 9.6.4.5 1.1.7 1.8.5.7-.1 1.2-.6 1.4-1.3.2-.6 0-1.4-.4-1.9-.5-.3-1.2-.5-1.8-.3zm-61.9 3.2l-.2.2c-1.7 1.3-3.4 2.3-5.1 3-.3-.1-.5-.2-.8-.3-1.1-.6-1.8-2-1.6-3.5.4-4 2.2-7.9 4.9-10.9 1.3-1.4 2.5-2.3 3.7-2.7.5-.2 1-.3 1.5-.3.8 0 1.6.2 2.2.7 1 .8 1.4 2.3 1.3 3.7-.5 3.5-3 6.6-5.9 10.1zm212.9 10.7c-.4-.7-1.3-1-2-.6-3.1 1.6-7.4 2.8-10.6 1.3l-38.4-18.8c-4.2-2-9-4.1-13.5-2.3-1.6.6-2.9 1.6-4.2 2.6l-1.2.9c-3.3 2.4-8.4 3.8-11.7 1.3-1.3-1-2.3-2.5-3.1-4.8-2.2-6.1-1.3-12.5-.2-16.7.5-1.8 1.1-3.6 1.8-5.4.4 0 .7-.1 1.1-.1 5.7-.7 11.4-1.9 16.9-3.7.5.1 1.1-.1 1.4-.4.5-.5.7-1.2.4-1.8-.2-.5-.6-.8-1-1-.5-.2-1.1-.1-1.5.2-.1.1-.2.1-.3.2-5.1 1.6-10.3 2.8-15.6 3.4 1.1-2.4 2.3-4.8 3.8-7.4.4-.7.2-1.6-.5-2-.7-.4-1.5-.3-2 .4-2.4 3.3-4.9 6.5-7.5 9.7-3.2.3-6.4.8-9.4 1.8-1.3.4-2.9 1.1-3.8 2.6-.4.7-.2 1.6.5 2.1.2.2.5.2.8.2.5 0 1-.2 1.3-.7.4-.6 1.3-1 2.2-1.3 1.9-.6 3.8-1 5.7-1.3-6 7-12.4 13.7-19.2 20-4.6-.7-9.3-1.7-13.8-2.9-1.9-.5-3.9-1.1-5.5-2.3-2.6-1.9-4.1-5.5-3.9-9.3.2-3.2 1.4-6.6 3.8-10.5 5.4-8.7 13.6-15.4 23.1-19.1 4.4-1.7 7.8-2 10.5-.9 3 1.2 5.4 4.4 5.9 8 .4 3.3-.5 7-2.8 10.3-.5.7-.3 1.6.4 2.1s1.6.3 2.1-.4c2.6-3.9 3.8-8.3 3.3-12.4-.6-4.7-3.7-8.8-7.7-10.4-3.4-1.3-7.6-1-12.7.9-10.3 3.6-19 10.8-24.7 20-2.7 4.3-4.1 8.2-4.3 11.9-.3 4.8 1.7 9.4 5.1 11.9 2 1.4 4.3 2.1 6.4 2.7 3.9 1.1 7.8 1.9 11.7 2.6-.9.8-1.9 1.7-2.9 2.5-1.2 1-2.6 2.2-3.4 3.9-1 2.2-.7 4.6.9 6 1.2 1.1 3.5 2 7.6-.2 1.6-.8 3.2-1.8 4.7-2.8 1.5-.9 3.1-2.1 4.1-3.9 1-1.9 1-4.8-.9-6.4-1.1-.9-2.4-1.1-3.5-1.3 7-6.6 13.5-13.6 19.7-21h.1c-.5 1.4-1 2.9-1.4 4.3-1.7 6.7-1.6 13.1.3 18.5 1 2.8 2.3 4.8 4.1 6.2 4.5 3.4 10.9 1.8 15.2-1.2.4-.3.8-.6 1.3-.9 1.1-.9 2.2-1.7 3.4-2.1 3.4-1.3 7.4.4 11.1 2.2L240 73.7c1.5.7 3.1 1 4.7 1 3.8 0 7.3-1.7 8.6-2.3.9-.3 1.2-1.2.8-1.9zM149.5 52.7c.7.6.6 1.8.2 2.7-.6 1.2-1.9 2-3 2.8-1.5.9-3 1.8-4.5 2.6-.9.5-3.2 1.5-4.2.6-.6-.5-.6-1.7-.2-2.5.5-1.1 1.5-2 2.7-2.9 1.6-1.4 3.1-2.8 4.7-4.2l2.1.3c.8 0 1.7.2 2.2.6z" fill="#FFF"/></svg>